<svg clip-rule="evenodd" fill-rule="evenodd" height="500" stroke-linejoin="round" stroke-miterlimit="1.41421" viewBox="0 0 359 413" width="500" xmlns="http://www.w3.org/2000/svg"><path d="m180.39911 1.339508c9.77027.038809 19.52752 2.4921328 27.68127 7.3629397l42.14786 25.1771123 81.75277 48.838445c16.43769 9.818245 27.91263 30.387295 27.91263 50.022805v148.03012c0 19.63252-11.47494 40.20256-27.90762 50.02082l-81.74676 48.83146-42.15888 25.1831c-16.4347 9.81825-39.38957 9.81825-55.82426 0l-123.902636-74.01456c-16.433685-9.81626-27.9116232-30.3873-27.9116232-50.02082v-148.03012c0-19.63551 11.4779382-40.20456 27.9116232-50.0238l123.902636-74.0145623c8.21786-4.9086269 18.06524-7.3629397 27.91163-7.3629397zm10.68569 51.788397h-21.88921l-5.04988.379195-6.08351.755402-4.6713.755403-6.4631 1.511801-5.70292 1.88801-4.6703 1.511802-7.16919 3.075356-3.91011 1.889999-4.99681 2.698153-4.6713 2.699147-4.6703 3.075357-4.29071 3.453555-5.3774 4.209954-4.996821 4.966351-4.996804 5.34256-3.204007 3.453554-2.498907 3.077345-3.583601 5.342561-2.498905 3.45456-2.8795 4.58615-2.171393 4.58915-2.8785 5.34256-2.173397 4.96536-2.878498 7.28531-1.7918 6.09895-.706104 3.83275-1.412207 4.58617-.705101 4.96635-.598937 4.96535-.705101 5.55853-.326511 3.5083v6.31394c0 .48568-.162253 1.45705.109171 1.83525 1.194867-1.61929 2.388733-2.80663 4.12745-3.93924 1.629547-1.08085 3.204008-2.10597 4.616215-3.34706 1.467293-1.18734 2.66216-2.69915 3.639688-4.26271 2.388734-3.99497 4.398875-9.49975 4.725386-14.14166.324506-4.37118.922441-8.68763 1.845884-12.95231 1.792802-8.36517 4.77947-16.46063 8.744668-24.0704 7.929388-15.166766 19.768902-28.119094 33.835882-37.887579-11.62317 13.27678-21.56171 25.905639-27.37278 42.851959-2.661161 7.71824-4.398877 15.75895-5.214151 23.90914-.433678 4.15521-.597935 8.31242-.488764 12.52038.05508 1.72777 1.575462 8.36616.54385 9.71574-4.074368 5.3973-8.473243 10.47015-13.525137 15.00356-3.149924 2.80763-9.613025 5.7755-11.296656 9.661 0 .0548-2.22648 5.07283-2.22648 5.07283l-2.010141 5.66702c.379594 6.04522 1.359124 12.08944 3.531518 18.35061 3.583602 10.30892 8.472241 20.13116 11.404825 30.70879 2.607074 9.49877 3.80094 20.02265 9.830363 27.52493 3.747858 4.69564 9.017089 7.66451 13.904736 11.00957 6.951867 2.64441 13.739467 5.39731 20.529087 8.47465 2.60707 1.18635 5.3774 2.21247 8.25691 2.53493 1.68262.16323 3.74684 0 5.04988 1.18834 1.57545 1.40333 2.60707 4.42594 3.47542 6.31493 2.06525 4.47967 3.6407 9.22905 5.32334 13.87095 1.30303 3.50631 2.66115 6.96086 4.45395 10.25318.92345 1.72777 1.95507 3.39981 3.09484 4.96635.87036 1.18634 2.66116 2.31897 2.77033 3.83076-1.89997-.48569-4.01928-3.07536-5.37641-4.47967-1.73771-1.889-3.31317-3.88549-4.67029-6.04422-2.77033-4.2637-4.88965-8.9056-6.8447-13.60124-1.03162-2.48217-2.00914-5.07284-3.91011-6.96085-1.4663-1.45805-3.31318-2.43043-5.10499-3.34706-4.99681-2.58968-9.77627-4.85688-15.47918-4.69564 4.88764 10.20143 4.18153 23.74792 11.73134 32.05934 5.37639 5.93673 13.6323 7.66351 19.82397 12.52038 7.9304 6.26119 11.73134 17.05579 19.49848 23.47821 4.50804 3.72427 10.15586 5.55853 15.85878 5.50379.81528 0 1.62855-.0527 2.44383-.10745.81527.0547 1.63054.10745 2.44381.10745 5.64883.0547 11.35175-1.77952 15.85979-5.50379 7.76714-6.42242 11.62216-17.21702 19.49847-23.47821 6.19168-4.91061 14.44657-6.63838 19.82298-12.52038 7.54981-8.31142 6.8447-21.85791 11.73233-32.05934-5.64882-.16124-10.48338 2.10596-15.47818 4.69564-1.84789.91663-3.69377 1.88901-5.10698 3.34706-1.89997 1.88801-2.87749 4.47868-3.91011 6.96085-1.89997 4.69564-4.07337 9.33754-6.8427 13.60124-1.41321 2.15873-2.93358 4.15522-4.6723 6.04422-1.35712 1.40431-3.47442 3.99398-5.3764 4.47967.10917-1.51179 1.95505-2.64442 2.77033-3.83076 1.13978-1.56654 2.17239-3.23858 3.09684-4.96635 1.73671-3.29232 3.14992-6.74687 4.45295-10.25318 1.68363-4.64289 3.2581-9.39128 5.32232-13.87095.86936-1.88899 1.90098-4.9116 3.47644-6.31493 1.30304-1.18834 3.42135-1.02511 5.05089-1.18834 2.87849-.32246 5.64883-1.34858 8.25491-2.53493 6.7896-3.07734 13.57821-5.83024 20.53008-8.47465 4.94173-3.34506 10.15588-6.31393 13.90373-11.00957 6.02942-7.50228 7.22428-18.02616 9.83137-27.52493 2.93358-10.57763 7.82122-20.39987 11.40482-30.70879 2.1734-6.26117 3.15092-12.30539 3.53052-18.35061l-2.01014-5.66702c.11017-.10648-2.11731-5.18132-2.11731-5.23507-1.68363-3.88549-8.14674-6.85436-11.29666-9.65999-5.05089-4.53441-9.44976-9.60626-13.52413-15.00356-1.03263-1.34957.48876-7.93422.54284-9.71574.11017-4.15521-.0541-8.36517-.48877-12.52038-.81427-8.15019-2.60706-16.13716-5.21315-23.90915-5.81208-16.9473-15.7506-29.576166-27.37277-42.852946 14.06598 9.769479 25.90649 22.776549 33.83589 37.886596 3.96419 7.60976 6.95186 15.70521 8.74466 24.07137.92245 4.2637 1.51938 8.58214 1.84588 12.95332.32651 4.6419 2.38875 10.14669 4.72539 14.13968.97753 1.62029 2.17139 3.07734 3.63868 4.26369 1.41221 1.29584 2.98668 2.32195 4.61722 3.34606 1.73772 1.13461 2.93258 2.32096 4.12746 3.94025.27142-.37721.10916-1.34858.10916-1.83427v-6.31393l-.3265-3.50929-.7061-5.55953-.70611-4.96436-.70511-4.96535-1.41321-4.58816-.7061-3.83175-1.79281-6.09797-2.87749-7.28729-2.17239-4.96337-2.8795-5.34456-2.17239-4.58715-2.8775-4.58716-2.49891-3.45354-3.58561-5.344564-2.4979-3.075352-3.20501-3.454552-4.99681-5.342561-4.9958-4.965355-5.37741-4.209953-4.2897-3.453556-4.6703-3.077347-4.67231-2.698151-4.9958-2.699148-3.91211-1.888009-7.16821-3.077347-4.67131-1.293839-5.70289-1.89-6.46312-1.509811-4.6703-.810143-6.08251-.755402zm6.57028 288.580855c0 .16223-.21634.37721-.54185.37721-1.62955-2.48219-14.3925-2.21247-17.70667-2.37371 0 0-14.60983.16124-16.02105 2.37371-.3265 0-.54384-.21498-.54384-.37721 0-.16123.10814-.32346.27242-.48568 2.28057-2.42844 6.62536-3.23759 11.13341-3.56205 1.57446-.10745 3.09484-.21597 4.67029-.21597v-.0547c2.44482.0547 4.88865.10948 7.38655.32446 4.45396.32445 8.85284 1.1336 11.1344 3.56303.0541.0527.21634.21597.21634.43095zm-22.28883-30.6421c-.22936-.40407-.74817-.61805-1.01059-.9853-.3255-.48568-.65101-1.02412-1.0306-1.45705-.76119-.97138-1.63056-1.83428-2.60808-2.64342-.48876-.43195-1.03262-.81015-1.35713-1.34858-.59792-1.02612-.3265-2.32194.32451-3.23858.27243-.37919.65302-.70166 1.14179-.75541.3796-.0548.76019.0538 1.0857.26971.48876.32248.65202.70167.7051 1.18736.11017.59218-.053 1.24109.16425 1.83327.21734.7564.32452 1.45806.70611 2.16071.54285.97138.97752 1.88801 1.24895 3.02061.15925.63399.31951 1.37047.62999 1.95668.006.0139.014.0268.0211.0409zm10.1779-2.06316c.27142-1.1346.65302-2.05124 1.24896-3.02261.38159-.64791.54385-1.40332.7061-2.15872.16426-.59418.0541-1.29584.16426-1.83626.053-.43095.21634-.80815.7051-1.18635.32551-.21598.7061-.32446 1.0857-.27071.48875.0547.86935.37918 1.14178.7564.70509 1.02512.97752 2.32094.3245 3.29232-.3245.54043-.86835.91762-1.35711 1.34858-.97753.7554-1.8469 1.67303-2.60809 2.6454-.37958.48569-.70509.97137-1.0306 1.45707-.27142.37719-.81527.59317-1.03161.97137.3255-.59418.48876-1.34958.65101-1.99649zm12.2211-35.18944c-.48876 1.61929-.87036 3.29133-1.19487 4.96635-.7061 3.5063-.54385 7.17682-1.35912 10.63038-.81428-.70067-1.52038-1.29384-2.22649-2.10398-.54284-.59417-1.24894-1.18734-2.06422-1.02513-.3245.0538-.651.26972-.92243.43096-1.14079.86388-2.1724 1.83526-3.36727 2.6454.37959-6.5309 1.30404-13.06081 3.85602-19.05228 1.24896-3.02261 2.93259-5.88199 4.99681-8.4189 1.62955-1.9975 4.56214-5.55853 7.22329-6.15272-.65101 1.45707-2.17238 2.3757-3.09583 3.61679-1.0857 1.56355-2.06322 3.18384-2.8785 4.91061-.76019 1.61929-1.4112 3.34608-1.95506 5.07285-.3806 1.40332-1.35812 3.88549-.92344 5.28881.65202-.10745 1.24995-1.34858 1.68364-1.889l1.62854-2.64342c.65302-.32445 1.4132-.81014 2.11931-.97137-.16426 1.45706-1.0867 3.23759-1.52038 4.69465zm-36.71638-4.74939c.70611.16123 1.46628.64692 2.11932.97137l1.62854 2.64441c.43468.59417.97753 1.78152 1.68364 1.89001.43467-1.40431-.48878-3.88749-.92245-5.28982-.48878-1.72778-1.14079-3.45454-1.95506-5.07284-.81528-1.72678-1.7928-3.34706-2.8795-4.91161-.92344-1.29583-2.44382-2.21247-3.09584-3.61678 2.66116.59417 5.59374 4.10246 7.2243 6.15271 2.06322 2.53691 3.74785 5.39729 4.99681 8.41989 2.4989 6.04522 3.47643 12.57513 3.85602 19.05228-1.19487-.81014-2.22748-1.7815-3.36727-2.6444-.27143-.21696-.59793-.37821-.92444-.43294-.86835-.10745-1.62855.48569-2.1173 1.07986-.70611.81014-1.4663 1.40331-2.2265 2.10398-.81525-3.45356-.59892-7.12408-1.35911-10.63038-.32452-1.67502-.76019-3.29332-1.19488-4.96635-.43366-1.45706-1.35711-3.23759-1.46628-4.74939zm48.22938 11.81973-3.2571 2.15871-2.98766 4.31843-3.53052 1.67204v-3.72426l.59693-3.83076 2.38974-8.31241 3.14991-8.41892 2.77034-5.88199 3.14992-5.7755 3.04175-5.23606 3.91011-5.34257 7.00696-8.04071 4.2897-3.29332 9.28853-5.66701 8.03856-3.50829 9.6661-2.58968 7.5498-1.56554 8.6355-1.1326h10.7548l-3.09683 5.28782-2.22648 5.45104-1.03263 6.47715-.97753 6.2602-1.62853 4.74938-1.84689 5.45104-2.87849 6.47716-4.39888 5.77449-4.12845 4.42495-4.77847 3.83274-4.78047 2.48317-5.86518 2.58968-7.06103 1.72777-6.24676 1.24109-7.05902 1.13261-7.16921.81015zm-113.404242-62.9841 7.549802 1.56655 9.66811 2.58966 8.03757 3.5083 9.2885 5.66701 4.28971 3.29133 7.00595 8.0427 3.91011 5.34256 3.04275 5.23507 3.14893 5.77451 2.77033 5.88298 3.14992 8.41891 2.39074 8.31143.59693 3.83275v3.66952l-3.47644-1.67204-2.98566-4.31843-3.25909-2.15871h-9.28852l-7.16921-.81015-7.06002-1.13261-6.24578-1.24109-7.06103-1.72777-5.86516-2.58968-4.78048-2.48317-4.778458-3.83274-4.128454-4.42495-4.398875-5.77449-2.878499-6.47716-1.846887-5.45104-1.628545-4.74938-.977528-6.2602-1.032613-6.47715-2.22648-5.45104-3.149923-5.23408h10.752805z" fill="#ff9000" stroke-width=".998408"/></svg>
