<svg clip-rule="evenodd" fill-rule="evenodd" height="500" stroke-linejoin="round" stroke-miterlimit="1.41421" viewBox="0 0 359 206500" width="500" xmlns="http://www.w3.org/2000/svg"><path d="m-7023.5165 1630.874-3198.2765 240.9979-3852.309 481.9965-2956.738 475.655-4092.616 963.9937-3612.001 1204.9917-2956.739 963.9935-4539.776 1959.6975-2476.131 1204.9916-3163.599 1718.6996-2957.976 1718.699-2957.982 1959.696-2716.433 2200.697-3405.142 2682.691-3163.598 3164.691-3164.838 3405.687-2028.964 2200.695-1581.8 1959.698-2269.269 3405.687-1583.039 2200.696-1823.341 2923.691-1374.94 2923.69-1822.10400000001 3405.688-1376.179 3164.689-1823.34299999999 4642.389-1134.63499999999 3881.344-445.925 2448.035-894.329 2917.348-447.166 3164.688-379.042 3164.692-445.92200000001 3545.212-206.86199999999 2232.406v4027.21000000001c0 304.41800000001-103.743 925.94100000001 68.13099999999 1166.939 756.609-1033.75599999999 1512.641-1788.461 2613.621-2511.457 1031.855-684.943 2029.064-1338.174 2923.29399999999-2130.932 929.113-754.70600000001 1686.207-1718.7 2305.192-2714.404 1512.582-2549.50900000001 2784.671-6056.669 2991.422-9012.071 205.482-2784.164 584.58-5536.621 1169.318-8257.365 1135.23-5327.332 3026.096-10489.771 5536.918-15335.107 5021.01-9665.303 12518.09200000001-17922.668 21425.519-24144.23-7359.964 8460.31-13653.242 16508.388-17332.907 27308.919-1685.085 4915.1-2784.849 10039.485-3301.094 15233.634-274.611 2644.64-378.798 5295.622-309.669 7978.315 34.88 1103.52 997.586 5333.674 344.353 6189.853-2579.951 3437.398-5365.326 6671.851-8564.262 9563.83100000001-1994.579 1788.46000000001-6087.3 3678.39599999999-7153.39999999999 6151.8 0 63.421-1409.62300000001 3234.451-1409.62300000001 3234.451l-1273.36599999999 3608.63c240.363 3855.982 861.469 7705.60400000001 2237.06299999999 11694.77400000001 2269.19100000001 6570.36 5364.572 12829.98 7221.52800000001 19571.59 1650.839 6050.34000000001 2406.465 12760.23 6224.386 17535.8 2373.201 2993.47 5709.641 4883.39999999999 8804.567 7020.67000000001 4402.029 1680.66 8700.703 3437.39000000001 12999.988 5397.10000000001 1650.838 754.70000000001 3403.905 1407.92999999999 5227.249 1617.23000000001 1065.466 101.45999999999 2373.179 0 3198.281 754.70999999999 997.608 894.22 1651.283 2822.20000000001 2201.141 4027.19 1307.732 2853.94 2304.997 5879.10000000001 3370.463 8834.5 825.102 2238.76000000001 1685.251 4439.44 2820.48 6538.66 584.739 1097.19 1237.876 2162.64999999999 1959.603 3164.69 551.125 754.70999999999 1684.844 1471.35999999999 1753.973 2435.35000000001-1203.089-304.39999999999-2544.555-1959.67999999999-3403.906-2853.92999999999-1100.348-1198.64000000001-2098.626-2473.39000000001-2957.975-3849.62-1754.215-2714.39999999999-3096.182-5676.14999999999-4334.153-8669.60000000001-653.233-1579.17999999999-1272.408-3228.10999999999-2476.131-4433.10999999999-928.479-925.92999999999-2097.13-1547.45000000001-3231.725-2130.92000000001-3164.055-1648.95000000001-6190.538-3094.94-9801.709-2993.45000000001 3094.926 6500.60000000001 2647.741 15132.15 7428.388 20427.78 3404.42 3786.20000000001 8632.162 4883.39000000001 12552.826 7978.29999999999 5021.644 3989.16 7427.69 10870.31 12345.96 14960.94 2854.5614 2371.92999999999 6430.8447 3545.20999999999 10042.0148 3507.16 516.2433 0 1032.11346-63.42000000001 1548.35155-69.76000000001 516.24337 63.41 1032.14511 69.76000000001 1547.12015 69.76000000001 3576.9231 63.41 7187.4466-1135.23000000001 10042.0095-3507.16 4918.269-4090.63 7359.805-10971.78 12347.202-14960.94 3920.664-3126.63 9148.41-4230.14000000001 12552.822-7978.29999999999 4780.648-5295.63 4333.466-13927.17999999999 7428.387-20427.78-3576.919-101.48999999999-6637.669 1344.5-9800.457 2993.45000000001-1170.119 583.47-2339.343 1204.98999999999-3234.205 2130.92000000001-1203.088 1205-1822.267 2853.92999999999-2476.134 4433.10999999999-1203.089 2993.45000000001-2579.336 5955.20000000001-4332.917 8669.60000000001-894.865 1376.23000000001-1856.994 2650.98000000001-2957.975 3849.62-859.351 894.25-2200.785 2549.53-3405.142 2853.92999999999 69.129-963.98999999999 1237.729-1680.64000000001 1753.972-2435.35000000001 721.728-1002.04000000001 1376.704-2067.5 1962.077-3164.69 1099.713-2099.22 1994.141-4299.89999999999 2819.243-6538.66 1066.101-2955.39999999999 2063.364-5980.56 3370.463-8834.5 550.491-1204.98999999999 1203.533-3132.97 2201.143-4027.19 825.1-754.70999999999 2166.428-653.25 3198.276-754.70999999999 1822.713-209.29999999999 3577.044-862.53 5227.251-1617.23000000001 4299.286-1959.70999999999 8597.96-3716.44 12999.98600000001-5397.10000000001 3129.176-2137.26999999999 6430.131-4027.20000000001 8803.327-7020.67000000001 3817.921-4775.57000000001 4574.797-11485.45999999999 6225.626-17535.8 1857.59-6741.61 4952.34299999999-13001.23 7221.53200000001-19571.59 1376.22900000001-3989.17 1995.462-7838.792 2235.825-11694.77400000001l-1272.129-3608.63c69.769-69.762-1341.495-3304.215-1341.495-3335.925-1066.102-2473.40300000001-5158.817-4369.681-7153.40300000001-6158.14199999999-3198.296-2885.639-5983.073-6120.09-8563.019-9557.488-653.87-862.52 308.87-5054.624 343.113-6189.853 69.763-2650.982-34.434-5333.675-309.671-7978.315-515.60699999996-5194.14900000003-1650.89199999996-10286.82500000003-3301.08999999996-15239.97600000003-3680.303-10794.19-9973.584-18842.266-17332.91400000001-27302.579 8906.797 6221.564 16404.514 14510.64 21425.524 24137.889 2510.194 4851.679 4402.934 10007.775 5538.155 15341.45 584.106 2714.404 961.326 5466.859 1168.076 8257.367 206.748 2955.39999999999 1513.06299999999 6462.56 2992.663 9005.727 618.98299999999 1033.757 1374.84600000001 1959.698 2303.962 2720.746 894.23 824.467 1890.8 1477.701 2923.291 2130.933 1100.344 722.99400000001 1857.012 1477.7 2613.622 2511.45600000001 171.874-240.99800000001 69.361-862.52099999999 69.361-1173.28200000001v-4020.867l-206.855-2238.749-447.174-3538.87-447.158-3164.69-445.92200000001-3164.689-895.577-2923.691-447.162-2441.694-1134.632-3887.683-1822.102-4642.391-1376.183-3158.346-1823.34600000001-3412.03-1374.94-2917.349-1822.101-2923.69-1583.039-2200.696-2270.508-3405.688-1580.56-1959.696-2030.20099999999-2200.696-3163.599-3405.688-3163.598-3164.689-3405.14-2682.693-2716.43700000001-2200.696-2956.734-1959.697-2959.222-1718.698-3163.599-1725.0413-2477.373-1198.6499-4538.533-1959.6975-2957.977-830.81-3610.766-1198.6499-4092.613-963.9945-2957.977-513.7065-3851.071-481.9965-3163.5994-240.9979zm65722.0975 104238.146h6810.29l-1960.837 3367.62-1409.627 3475.45-654.016 4128.69-619.341 3989.14999999999-1031.826 3025.17-1169.319 3475.45-1822.101 4122.34-2785.8 3684.75-2613.632 2815.85999999999-3026.107 2441.70000000001-3027.34 1585.51999999999-3713.577 1648.92000000001-4471.654 1103.53-3955.118 786.41-4470.402 723-4539.781 520.04999999999h-5881.266l-2062.414 1369.89000000001-1891.47 2752.45000000001-2235.825 1065.47v-2371.92999999999l377.797-2441.70000000001 1513.672-5295.62 1994.282-5365.38 1753.98-3748.16 1994.279-3678.39999999999 1926.155-3335.92999999999 2476.132-3405.67999999999 4436.963-5124.39 2716.435-2099.22 5881.268-3608.63 5090.994-2238.75999999999 6120.332-1648.92 4780.091-995.72zm-124427.049 63.41h6807.808l5468.789 723 4780.081 1002.05 6122.818 1648.92999999999 5088.515 2232.41 5882.51 3614.97 2716.432 2092.87 4435.728 5124.39999999999 2476.131 3405.69 1926.155 3335.92999999999 1994.28 3678.38 1753.974 3754.51000000001 1995.523 5365.38 1513.673 5295.63 377.797 2441.69v2333.88l-2201.14-1065.47-1891.476-2752.45000000001-2063.644-1369.89000000001h-5881.273l-4539.776-520.04000000001-4470.411-723.01000000001-3955.12-786.42000000001-4470.411-1103.51000000001-3714.813-1648.92999999999-3026.103-1585.51999999999-3026.107-2441.70000000001-2614.861-2815.87-2784.562-3684.73000000001-1823.343-4122.35000000001-1169.319-3475.45-1030.583-3025.16-619.343-3989.14999999999-654.024-4128.69-1409.624-3475.45zm51379.375 24797.46000000001c1685.085 380.53 3541.972 2612.94 4574.4601 3919.41 1306.4645 1617.22 2373.9855 3443.73000000001 3164.8404 5365.38 1582.3444 3855.95999999999 2201.083 8016.35999999999 2441.4466 12145.04999999999-756.608-520.06-1410.049-1135.23000000001-2131.7763-1686.98999999999-171.8696-139.53-379.1469-241-585.8981-279.04999999999-549.8569-63.42000000001-1030.7627 310.76000000001-1340.2565 691.28-447.1143 513.72-929.4974 894.23000000001-1410.8609 1338.17999999999-516.2443-2200.69-378.2853-4540.92999999999-859.6483-6773.32999999999-205.482-1065.45999999999-481.59-2099.22-756.835-3164.69-274.611-925.92999999999-859.883-2061.16-929.011-3025.17000000001 447.115 101.48000000001 929.232 412.25 1342.735 621.51999999999l1030.5855 1680.66c275.2454 380.53 619.3912 1135.23000000001 1066.5062 1204.98999999999 275.2462-894.23000000001-310.0514-2473.39999999999-584.6615-3367.64000000001-309.4931-1103.51999999999-721.8352-2200.69-1237.4442-3234.44-516.245-1103.53-1135.229-2130.94-1823.343-3126.63-584.739-830.82000000001-1547.971-1414.29999999999-1960.839-2308.53zm28545.476 63.42999999999c-412.233 925.92999999999-1376.099 1509.41-1960.838 2302.17000000001-687.48 995.69-1305.869 2029.45000000001-1822.1 3126.64000000001-481.3623 1033.73999999999-894.3135 2137.26999999999-1238.6872 3234.44-240.9979 894.23000000001-859.9138 2479.75-584.6557 3373.98000000001 412.8683-69.76999999999 791.8954-862.51999999999 1066.507-1204.98999999999l1031.8209-1686.98000000001c413.503-202.95000000001 894.378-513.72 1341.492-621.53-104.009 932.29000000001-687.834 2067.51999999999-962.457 2993.45000000001-309.487 1033.75-551.348 2099.22-756.831 3164.70000000001-447.1161 2232.39999999999-344.6466 4572.62-860.8899 6773.31-515.6103-443.94-962.5047-824.45999999999-1409.6191-1338.17000000001-343.7399-380.53-790.5702-754.70999999999-1306.8136-653.23000000001-205.483 63.41-412.7866 171.23000000001-584.6562 272.70000000001-722.3609 551.76000000001-1375.1683 1173.29000000001-2131.7762 1686.98999999999 240.3644-4160.39000000001 825.4888-8320.78 2441.4465-12138.70000000001 790.855-1928 1856.4993-3748.16 3163.5992-5365.39999999999 1031.8523-1274.73999999999 2889.3723-3545.20000000001 4574.4583-3919.38zm-8571.696 28532.94h179.6135c309.4931 63.42000000001 550.8845 240.98999999999 723.3877 481.98999999999 446.4822 653.23999999999 619.1257 1484.04999999999 205.6232 2099.22-205.483 342.48000000001-550.1551 583.48000000001-859.6484 862.51999999999-618.9842 482-1169.1645 1065.48000000001-1651.162 1687-240.3635 304.39999999999-446.6708 615.17000000001-652.7885 925.92999999999-171.8695 241-517.0362 374.17999999999-654.0252 615.19 206.1177-374.19 309.74-856.19 412.4819-1268.41 171.8696-723 414.1678-1306.47 791.5213-1928 241.6318-412.22 344.4245-894.23000000001 447.159-1376.22 104.0103-374.17999999999 34.3113-824.47 104.0546-1166.95000000001 33.6133-272.70000000001 136.4301-513.69 445.9233-754.70000000001 154.5875-107.79999999999 329.0138-171.23999999999 507.8596-183.92000000001zm-11435.5318 69.76999999999c178.8469 0 352.0354 76.09 506.6229 177.57000000001 309.4931 209.28 413.554 450.28 447.1663 761.04000000001 69.7633 374.17999999999-33.5489 786.42000000001 104.0483 1166.94 137.6226 482 205.5335 932.28 447.1664 1376.23000000001 343.7391 621.51999999999 618.4075 1204.98999999999 790.2772 1927.98999999999 100.8388 399.54000000001 202.2556 868.85999999999 398.8592 1243.03-145.2337-253.67000000001-472.998-393.19-639.1595-627.85000000001-206.1165-310.76000000001-412.4239-653.23999999999-652.7885-925.94-481.9963-621.51999999999-1032.1768-1173.29000000001-1651.1621-1686.98999999999-309.4933-272.70999999999-654.1654-513.72-859.6483-856.17999999999-378.6208-653.23000000001-206.6109-1484.04000000001 205.6231-2067.51000000001 172.5042-241 412.6591-443.95000000001 722.1512-482.01000000001h180.8438zm4943.59379 23427.57000000001c1548.0975 63.42000000001 3095.56041 69.76999999999 4677.27111 209.28 2820.3153 202.95000000001 5605.8629 722.98999999999 7050.5849 2270.45999999999 34.247 0 136.26 133.19 136.26 272.70999999999 0 101.47-137.003 241.01000000001-343.12 241.01000000001-1031.8522-1579.17999999999-9112.7378-1407.94-11211.32572-1515.76000000001 0 0-9251.23028 107.82000000001-10144.82728 1515.76000000001-206.752 0-344.354-139.54000000001-344.354-241.01000000001s68.171-209.28 172.18-310.76000000001c1444.0873-1547.47 4194.7857-2061.17000000001 7049.3489-2270.45000000001 996.9714-63.44 1960.376-133.20000000001 2957.98209-133.20000000001z" fill="#fff"/></svg>